<svg xmlns="http://www.w3.org/2000/svg" version="1.1" xmlns:xlink="http://www.w3.org/1999/xlink" xmlns:svgjs="http://svgjs.dev/svgjs" width="1500" height="500" viewBox="0 0 1500 500"><g transform="matrix(1,0,0,1,-0.9090909090911055,0.26451744838672653)"><svg viewBox="0 0 396 132" data-background-color="#50a060" preserveAspectRatio="xMidYMid meet" height="500" width="1500" xmlns="http://www.w3.org/2000/svg" xmlns:xlink="http://www.w3.org/1999/xlink"><g id="tight-bounds" transform="matrix(1,0,0,1,0.24000000000006594,-0.06983260637409217)"><svg viewBox="0 0 395.51999999999987 132.13966521274816" height="132.13966521274816" width="395.51999999999987"><g><svg viewBox="0 0 573.1868802079856 191.49656769574943" height="132.13966521274816" width="395.51999999999987"><g transform="matrix(1,0,0,1,177.66688020798563,59.17521897091722)"><svg viewBox="0 0 395.52 73.14612975391499" height="73.14612975391499" width="395.52"><g id="textblocktransform"><svg viewBox="0 0 395.52 73.14612975391499" height="73.14612975391499" width="395.52" id="textblock"><g><svg viewBox="0 0 395.52 73.14612975391499" height="73.14612975391499" width="395.52"><g transform="matrix(1,0,0,1,0,0)"><svg width="395.52" viewBox="0.9 -38.1 268.17 49.6" height="73.14612975391499" data-palette-color="#454545"><path d="M13.55-36.4L18.1-36.4 30.7 0 25.55 0 21.35-12.5 9.35-12.5 5.1 0 0.9 0 13.55-36.4ZM20.2-15.9L15.4-30.3 10.5-15.9 20.2-15.9ZM43.75-25.45L43.75-25.45Q45.45-25.45 47.12-25.03 48.8-24.6 50.2-23.7L50.2-23.7 48.75-20.5Q47.65-21.4 46.3-21.85 44.95-22.3 43.65-22.3L43.65-22.3Q41.8-22.3 40.42-21.45 39.05-20.6 39.05-18.9L39.05-18.9Q39.05-17.05 40.27-16.15 41.5-15.25 43.2-14.45L43.2-14.45Q44.45-13.85 45.72-13.23 47-12.6 48.07-11.73 49.15-10.85 49.82-9.63 50.5-8.4 50.5-6.6L50.5-6.6Q50.5-4.1 49.27-2.48 48.05-0.85 46.07-0.1 44.1 0.65 41.8 0.65L41.8 0.65Q39.8 0.65 37.8 0.1 35.8-0.45 34.1-1.45L34.1-1.45 35.85-4.5Q37.05-3.6 38.55-3.05 40.05-2.5 41.45-2.5L41.45-2.5Q43.35-2.5 44.77-3.4 46.2-4.3 46.2-6.1L46.2-6.1Q46.2-7.35 45.42-8.18 44.65-9 43.45-9.65 42.25-10.3 40.95-10.9L40.95-10.9Q39.45-11.65 38.02-12.53 36.6-13.4 35.7-14.75 34.8-16.1 34.8-18.2L34.8-18.2Q34.8-20.6 36.07-22.2 37.35-23.8 39.4-24.63 41.45-25.45 43.75-25.45ZM59.84-31.95L62.9-31.95Q62.55-30.25 62.27-28.43 62-26.6 61.9-24.85L61.9-24.85 68.4-24.85 67.55-21.7 61.9-21.7 61.9-5.8Q61.9-4.85 62.12-4.13 62.34-3.4 62.92-3.03 63.5-2.65 64.55-2.65L64.55-2.65Q65.34-2.65 66.15-2.8 66.95-2.95 67.7-3.15L67.7-3.15 68.4-0.35Q67.15 0 66.02 0.28 64.9 0.55 63.45 0.55L63.45 0.55Q60.25 0.55 59-1.15 57.75-2.85 57.75-5.9L57.75-5.9 57.75-21.7 54.05-21.7 54.05-24.2Q56.05-24.25 57.2-25.53 58.34-26.8 58.95-28.6 59.55-30.4 59.84-31.95L59.84-31.95ZM78.64-33.2L78.64-33.2Q78.64-31.95 77.77-31.05 76.89-30.15 75.59-30.15L75.59-30.15Q74.34-30.15 73.47-31.05 72.59-31.95 72.59-33.2L72.59-33.2Q72.59-34.45 73.47-35.35 74.34-36.25 75.59-36.25L75.59-36.25Q76.84-36.25 77.74-35.35 78.64-34.45 78.64-33.2ZM72.99-24.85L77.74-24.85 77.74 0 73.59 0 73.59-21.9 72.99-24.85ZM88.74-31.95L91.79-31.95Q91.44-30.25 91.17-28.43 90.89-26.6 90.79-24.85L90.79-24.85 97.29-24.85 96.44-21.7 90.79-21.7 90.79-5.8Q90.79-4.85 91.02-4.13 91.24-3.4 91.82-3.03 92.39-2.65 93.44-2.65L93.44-2.65Q94.24-2.65 95.04-2.8 95.84-2.95 96.59-3.15L96.59-3.15 97.29-0.35Q96.04 0 94.92 0.28 93.79 0.55 92.34 0.55L92.34 0.55Q89.14 0.55 87.89-1.15 86.64-2.85 86.64-5.9L86.64-5.9 86.64-21.7 82.94-21.7 82.94-24.2Q84.94-24.25 86.09-25.53 87.24-26.8 87.84-28.6 88.44-30.4 88.74-31.95L88.74-31.95ZM98.89-24.85L103.29-24.85 108.69-9.45Q109.04-8.5 109.34-7.6 109.64-6.7 109.94-5.45L109.94-5.45Q110.24-6.65 110.51-7.53 110.79-8.4 111.09-9.25L111.09-9.25 116.54-24.85 120.44-24.85 111.54 0.3 107.74 0.3 98.89-24.85ZM132.69-25.45L132.69-25.45Q136.64-25.45 138.64-23.3 140.64-21.15 140.64-17.25L140.64-17.25 140.64-4.8Q140.64-3.75 141.04-3.38 141.44-3 141.99-3L141.99-3Q142.44-3 142.94-3.13 143.44-3.25 143.89-3.45L143.89-3.45 144.79-0.75Q143.99-0.3 142.76 0.08 141.54 0.45 140.24 0.45L140.24 0.45Q138.94 0.45 137.89-0.28 136.84-1 136.59-2.95L136.59-2.95Q135.14-1.4 133.19-0.43 131.24 0.55 129.09 0.55L129.09 0.55Q126.14 0.55 124.19-1.2 122.24-2.95 122.24-6L122.24-6Q122.24-8.85 123.61-10.55 124.99-12.25 127.19-13.1 129.39-13.95 131.86-14.25 134.34-14.55 136.49-14.55L136.49-14.55 136.49-17.2Q136.49-19.3 135.64-20.75 134.79-22.2 132.34-22.2L132.34-22.2Q130.44-22.2 128.69-21.45 126.94-20.7 125.19-19.25L125.19-19.25 123.14-22.2Q125.19-23.85 127.64-24.65 130.09-25.45 132.69-25.45ZM136.49-9.7L136.49-11.3Q135.14-11.3 133.44-11.18 131.74-11.05 130.14-10.58 128.54-10.1 127.51-9.05 126.49-8 126.49-6.15L126.49-6.15Q126.49-4.5 127.61-3.73 128.74-2.95 130.44-2.95L130.44-2.95Q132.24-2.95 133.59-3.95 134.94-4.95 135.71-6.5 136.49-8.05 136.49-9.7L136.49-9.7ZM170.23-36.9L170.23-36.9Q172.73-36.9 175.11-36.2 177.48-35.5 179.63-34.2L179.63-34.2 177.33-30.85Q175.78-32 173.96-32.68 172.13-33.35 170.18-33.35L170.18-33.35Q167.53-33.35 165.68-32.02 163.83-30.7 163.83-27.8L163.83-27.8Q163.83-26.2 164.71-25.08 165.58-23.95 167.03-23.1 168.48-22.25 170.18-21.45L170.18-21.45Q171.93-20.65 173.76-19.7 175.58-18.75 177.11-17.48 178.63-16.2 179.56-14.38 180.48-12.55 180.48-9.9L180.48-9.9Q180.48-6.3 178.73-3.98 176.98-1.65 174.13-0.53 171.28 0.6 167.98 0.6L167.98 0.6Q165.28 0.6 162.76-0.13 160.23-0.85 157.83-2.1L157.83-2.1 159.63-6.2Q161.28-4.8 163.63-3.9 165.98-3 168.13-3L168.13-3Q169.78-3 171.48-3.63 173.18-4.25 174.33-5.65 175.48-7.05 175.48-9.25L175.48-9.25Q175.48-11.45 174.43-12.88 173.38-14.3 171.68-15.28 169.98-16.25 168.08-17.15L168.08-17.15Q166.43-17.95 164.78-18.8 163.13-19.65 161.78-20.8 160.43-21.95 159.63-23.55 158.83-25.15 158.83-27.4L158.83-27.4Q158.83-30.55 160.51-32.65 162.18-34.75 164.81-35.83 167.43-36.9 170.23-36.9ZM191.28-33.2L191.28-33.2Q191.28-31.95 190.4-31.05 189.53-30.15 188.23-30.15L188.23-30.15Q186.98-30.15 186.1-31.05 185.23-31.95 185.23-33.2L185.23-33.2Q185.23-34.45 186.1-35.35 186.98-36.25 188.23-36.25L188.23-36.25Q189.48-36.25 190.38-35.35 191.28-34.45 191.28-33.2ZM185.63-24.85L190.38-24.85 190.38 0 186.23 0 186.23-21.9 185.63-24.85ZM196.93-24.65L201.48-25.25Q201.83-24.4 202.08-23.5 202.33-22.6 202.43-21.7L202.43-21.7Q203.93-23.2 205.98-24.33 208.03-25.45 210.18-25.45L210.18-25.45Q212.93-25.45 214.6-24.3 216.28-23.15 217.03-21.18 217.78-19.2 217.78-16.6L217.78-16.6 217.78 0 213.68 0 213.68-15.25Q213.68-16.8 213.45-18.3 213.23-19.8 212.35-20.78 211.48-21.75 209.48-21.75L209.48-21.75Q208.28-21.75 207.03-21.28 205.78-20.8 204.68-20.05 203.58-19.3 202.68-18.45L202.68-18.45 202.68 0 198.58 0 198.58-17.6Q198.58-18.6 198.43-19.93 198.28-21.25 197.93-22.53 197.58-23.8 196.93-24.65L196.93-24.65ZM232.92-25.45L232.92-25.45Q234.37-25.45 235.7-25.1 237.02-24.75 238.42-24.75L238.42-24.75Q240.32-24.75 242.27-24.98 244.22-25.2 246.37-25.5L246.37-25.5 245.47-21.9 241.47-21.9Q241.12-21.9 240.75-21.93 240.37-21.95 240.02-22L240.02-22Q240.87-20.85 241.3-19.6 241.72-18.35 241.72-17.05L241.72-17.05Q241.72-14.55 240.62-12.55 239.52-10.55 237.4-9.43 235.27-8.3 232.22-8.3L232.22-8.3Q230.97-8.3 230.02-7.65 229.07-7 229.07-5.65L229.07-5.65Q229.07-4.75 229.55-4.38 230.02-4 230.72-3.95 231.42-3.9 232.12-3.9L232.12-3.9 236.97-3.9Q238.27-3.9 239.65-3.73 241.02-3.55 242.17-3.03 243.32-2.5 244.05-1.48 244.77-0.45 244.77 1.3L244.77 1.3Q244.77 4.05 243.67 6 242.57 7.95 240.72 9.18 238.87 10.4 236.57 10.95 234.27 11.5 231.92 11.5L231.92 11.5Q230.52 11.5 228.97 11.18 227.42 10.85 226.05 10.13 224.67 9.4 223.82 8.2 222.97 7 222.97 5.2L222.97 5.2Q222.97 3.3 224.15 1.85 225.32 0.4 226.87-0.6L226.87-0.6 226.87-0.75Q225.77-1.3 225.15-2.27 224.52-3.25 224.52-4.35L224.52-4.35Q224.52-5 225.02-5.58 225.52-6.15 226.3-7.1 227.07-8.05 227.97-9.7L227.97-9.7Q226.22-10.9 225.17-12.78 224.12-14.65 224.12-16.8L224.12-16.8Q224.12-19.25 225.32-21.2 226.52-23.15 228.55-24.3 230.57-25.45 232.92-25.45ZM232.97-22.45L232.97-22.45Q231.12-22.45 229.8-20.83 228.47-19.2 228.47-16.85L228.47-16.85Q228.47-14.45 229.8-12.83 231.12-11.2 232.92-11.2L232.92-11.2Q234.97-11.2 236.2-12.75 237.42-14.3 237.42-16.8L237.42-16.8Q237.42-19.2 236.1-20.83 234.77-22.45 232.97-22.45ZM235.82 0.05L229.82 0.05Q228.87 0.75 228.07 1.98 227.27 3.2 227.27 4.35L227.27 4.35Q227.27 5.55 228.15 6.4 229.02 7.25 230.3 7.68 231.57 8.1 232.67 8.1L232.67 8.1Q234.42 8.1 236.35 7.6 238.27 7.1 239.6 5.93 240.92 4.75 240.92 2.75L240.92 2.75Q240.92 1.45 240.12 0.88 239.32 0.3 238.15 0.18 236.97 0.05 235.82 0.05L235.82 0.05ZM249.22-38.1L253.97-38.1 253.97-21.9Q255.57-23.4 257.42-24.45 259.27-25.5 261.52-25.5L261.52-25.5Q264.27-25.5 265.92-24.35 267.57-23.2 268.32-21.23 269.07-19.25 269.07-16.65L269.07-16.65 269.07 0 264.97 0 264.97-15.3Q264.97-16.85 264.75-18.32 264.52-19.8 263.67-20.8 262.82-21.8 260.82-21.8L260.82-21.8Q259.57-21.8 258.35-21.3 257.12-20.8 256.02-20.05 254.92-19.3 253.97-18.5L253.97-18.5 253.97 0 249.87 0 249.87-35.15 249.22-38.1Z" opacity="1" transform="matrix(1,0,0,1,0,0)" fill="#454545" class="wordmark-text-0" data-fill-palette-color="primary" id="text-0"></path></svg></g></svg></g></svg></g></svg></g><g><svg viewBox="0 0 160.39883448020038 191.49656769574943" height="191.49656769574943" width="160.39883448020038"><g><svg xmlns="http://www.w3.org/2000/svg" xmlns:xlink="http://www.w3.org/1999/xlink" version="1.1" x="0" y="0" viewBox="15 7.499999999999999 49 58.5" enable-background="new 0 0 80 80" xml:space="preserve" height="191.49656769574943" width="160.39883448020038" class="icon-icon-0" data-fill-palette-color="accent" id="icon-0"><g fill="#454545" data-fill-palette-color="accent"><path fill="#454545" d="M64 66H15l0-8.3c0.6-2.1 2.3-4 4.2-4.8L31.8 47l0.7-0.2c1.4-0.3 2.3-1.7 2.1-3.1L34 40.1l2-0.3 0.5 3.6c0.3 2.4-1.2 4.7-3.6 5.3l-0.6 0.1L20 54.7c-1.3 0.6-2.5 2-3 3.5V64h45v-5.8c-0.7-1.8-1.9-3.8-3.2-4.3l-13.2-4.9c-2.2-0.7-3.5-2.9-3.2-5.2l0.6-3.9 2 0.3L44.4 44c-0.2 1.3 0.6 2.6 1.9 3L59.5 52c2.6 1 4.1 4.9 4.4 5.7l0.1 0.2V66z" data-fill-palette-color="accent"></path></g><g fill="#454545" data-fill-palette-color="accent"><g fill="#454545" data-fill-palette-color="accent"><path fill="#454545" d="M51.3 31.9l-0.7-1.9c0.8-0.3 2.1-1 2.5-1.6 0.2-0.4 0.4-1.2 0.1-1.8-0.3-0.8-1.2-1.4-2.5-1.7l0.5-1.9c2.4 0.6 3.4 1.9 3.8 2.9 0.6 1.4 0.3 2.8-0.2 3.6C54.1 30.9 51.8 31.8 51.3 31.9z" data-fill-palette-color="accent"></path></g><g fill="#454545" data-fill-palette-color="accent"><path fill="#454545" d="M27.7 31.9c-0.4-0.2-2.7-1-3.5-2.4-0.5-0.8-0.8-2.2-0.2-3.6 0.4-1 1.4-2.2 3.8-2.9l0.5 1.9c-1.3 0.3-2.1 0.9-2.5 1.7-0.3 0.7-0.2 1.4 0.1 1.8 0.3 0.6 1.6 1.3 2.5 1.6L27.7 31.9z" data-fill-palette-color="accent"></path></g></g><g fill="#454545" data-fill-palette-color="accent"><path fill="#454545" d="M39.5 43c-2.4 0-11.7-6.2-12.5-14h0v-4c0-3.4 1.6-7.1 2.6-9.3 0.2-0.4 0.3-0.8 0.4-1 0.7-1.6 1.8-2.2 3.2-2.9 0.4-0.2 0.8-0.4 1.3-0.7 0.7-0.4 1.5-0.7 2.2-1 1-0.4 2.2-0.9 2.3-1.4 0.2-0.8 0.8-1.2 1.6-1.2 1.4 0.1 3.2 1.9 3.4 3.3 0.1 0.7 0.2 0.8 0.9 1.6 0.2 0.2 0.5 0.5 0.8 0.9 0.8 1 2.8 3.2 3.8 3.8 1.2 0.8 2.1 3.7 2.4 4.5l0 0.3v6C52 36.3 41.9 43 39.5 43zM29 28c0 7.1 9.2 12.9 10.5 13C40.8 40.9 50 35.1 50 28v-5.9c-0.5-1.5-1.2-3.1-1.6-3.3-1.1-0.7-2.6-2.4-4.2-4.2-0.3-0.3-0.6-0.6-0.8-0.8-0.8-0.8-1.3-1.4-1.5-2.7-0.1-0.4-0.7-1.1-1.2-1.4-0.5 1.1-1.9 1.7-3.3 2.3-0.7 0.3-1.3 0.6-2 0.9-0.5 0.3-1 0.5-1.4 0.7-1.4 0.7-1.8 0.9-2.2 1.8-0.1 0.3-0.3 0.7-0.5 1.1C30.5 18.6 29 22 29 25V28z" data-fill-palette-color="accent"></path></g></svg></g></svg></g></svg></g><defs></defs></svg><rect width="395.51999999999987" height="132.13966521274816" fill="none" stroke="none" visibility="hidden"></rect></g></svg></g></svg>